<?xml version="1.0" encoding="UTF-8"?>
<svg width="42px" height="42px" viewBox="0 0 42 42" version="1.1" xmlns="http://www.w3.org/2000/svg" xmlns:xlink="http://www.w3.org/1999/xlink">
    <!-- Generator: Sketch 52.4 (67378) - http://www.bohemiancoding.com/sketch -->
    <title>realtime</title>
    <desc>Created with Sketch.</desc>
    <g id="Page-1" stroke="none" stroke-width="1" fill="none" fill-rule="evenodd">
        <g id="realtime" fill="#000000">
            <path d="M41.3815,2.01355 C41.5546,5.17151 39.954,15.5971 33.6814,23.0811 L34.287,24.7682 C35.4118,27.7964 34.5033,31.2139 32.0375,33.2904 L26.4138,38.0922 C25.6352,38.7411 24.3807,38.4383 24.0346,37.4433 L22.1744,32.2954 C20.271,33.4202 18.6705,34.1988 17.5457,34.718 C16.594,35.1506 15.5125,34.9343 14.8204,34.2421 L7.89892,27.2773 C7.16352,26.5419 6.94722,25.4604 7.37981,24.5519 C7.89892,23.4272 8.67759,21.8265 9.80233,19.9231 L4.65449,18.0197 C3.65952,17.6736 3.31345,16.4191 4.0056,15.6404 L8.80737,9.97335 C10.8838,7.50754 14.3013,6.59909 17.3294,7.72384 L19.0598,8.37274 C26.5004,2.10007 36.9258,0.542713 40.0837,0.715752 C40.4731,0.715752 40.7759,0.888791 40.9922,1.10509 C41.2085,1.36465 41.3815,1.66747 41.3815,2.01355 Z M24.4237,17.6735 C26.1108,19.3174 28.7929,19.3174 30.4368,17.6735 C32.0806,16.0297 32.0806,13.3476 30.4368,11.6604 C28.7497,10.0166 26.0676,10.0166 24.4237,11.6604 C22.7799,13.3476 22.7799,16.0297 24.4237,17.6735 Z" id="Shape"></path>
            <path d="M11.8355,36.0161 L8.72082,39.0876 C8.11519,39.6932 8.11519,40.7314 8.72082,41.337 C9.32645,41.9427 10.3647,41.9427 10.9703,41.337 L14.085,38.2224 C14.6906,37.6167 14.6906,36.5785 14.085,35.9729 C13.4361,35.3673 12.4411,35.3673 11.8355,36.0161 Z" id="Path"></path>
            <path d="M10.062,32.0363 C9.45638,31.4306 8.41816,31.4306 7.81253,32.0363 L2.88098,37.0111 C2.27535,37.6168 2.27535,38.655 2.88098,39.2606 C3.48661,39.8663 4.52483,39.8663 5.13046,39.2606 L10.062,34.2425 C10.7109,33.6369 10.7109,32.6419 10.062,32.0363 Z" id="Path"></path>
            <path d="M6.12693,30.3055 C6.73255,29.6999 6.73255,28.6617 6.12693,28.056 C5.5213,27.4504 4.48309,27.4504 3.87746,28.056 L0.762813,31.1707 C0.157187,31.7763 0.157187,32.8145 0.762813,33.4202 C1.36844,34.0258 2.40665,34.0258 3.01228,33.4202 L6.12693,30.3055 Z" id="Path"></path>
        </g>
    </g>
</svg>